<control> default_path=Sustain\
<region> sample=3_G.wav pitch_keycenter=g3 hikey=g3 lovel=100 offset=13101
<region> sample=3_A.wav pitch_keycenter=a3 lokey=g#3 hikey=a3 lovel=100 offset=15410
<region> sample=3_B.wav pitch_keycenter=b3 lokey=a#3 hikey=b3 lovel=100 offset=16066
<region> sample=4_Db.wav pitch_keycenter=c#4 lokey=c4 hikey=d4 lovel=100 offset=14115
<region> sample=4_F.wav pitch_keycenter=f4 lokey=d#4 hikey=f4 lovel=100 offset=20396
<region> sample=4_Gb.wav pitch_keycenter=g4 lokey=f#4 hikey=g4 lovel=100 offset=16186
<region> sample=4_A.wav pitch_keycenter=a4 lokey=g#4 hikey=a4 lovel=100 offset=18638
<region> sample=4_B.wav pitch_keycenter=b4 lokey=a#4 hikey=b4 lovel=100 offset=21507
<region> sample=5_Db.wav pitch_keycenter=c#5 lokey=c5 hikey=c#5 lovel=100 offset=28173
<region> sample=5_Eb.wav pitch_keycenter=d#5 lokey=d5 hikey=e5 lovel=100 offset=29829
<region> sample=5_F.wav pitch_keycenter=f5 lokey=e5 hikey=f#5 lovel=100 offset=25607
<region> sample=5_A.wav pitch_keycenter=a5 lokey=g5 hikey=a#5 lovel=100 offset=13879
<region> sample=6_C.wav pitch_keycenter=c6 lokey=b5 lovel=100 offset=26880
<region> sample=3_Gb_p.wav pitch_keycenter=f#3 hikey=g3 hivel=99 offset=32904
<region> sample=3_Bb_p.wav pitch_keycenter=a#3 lokey=g#3 hikey=a#3 hivel=99 offset=30514
<region> sample=4_C_p.wav pitch_keycenter=c4 lokey=b3 hikey=c4 hivel=99 offset=34022
<region> sample=4_D_p.wav pitch_keycenter=d4 lokey=c#4 hikey=d4 hivel=99 offset=33672
<region> sample=4_E_p.wav pitch_keycenter=e4 lokey=d#4 hikey=f4 hivel=99 offset=23234
<region> sample=4_Gb_p.wav pitch_keycenter=f#4 lokey=f#4 hikey=f#4 hivel=99 offset=27133
<region> sample=4_Ab_p.wav pitch_keycenter=g#4 lokey=g4 hikey=g#4 hivel=99 offset=38917
<region> sample=4_Bb_p.wav pitch_keycenter=a#4 lokey=a4 hikey=b4 hivel=99 offset=26773
<region> sample=5_D_p.wav pitch_keycenter=d5 lokey=c5 hikey=d5 hivel=99 offset=17488
<region> sample=5_E_p.wav pitch_keycenter=e5 lokey=d#5 hikey=e5 hivel=99 offset=28289
<region> sample=5_Gb_p.wav pitch_keycenter=f#5 lokey=f5 hikey=g5 hivel=99 offset=22887
<region> sample=5_A_p.wav pitch_keycenter=a5 lokey=g#5 hikey=a#5 hivel=99 offset=11778
<region> sample=6_C_p.wav pitch_keycenter=c6 lokey=b5 hivel=99 offset=16897